<?xml version="1.0" encoding="UTF-8" standalone="no"?>
<svg
   xmlns:dc="http://purl.org/dc/elements/1.1/"
   xmlns:cc="http://creativecommons.org/ns#"
   xmlns:rdf="http://www.w3.org/1999/02/22-rdf-syntax-ns#"
   xmlns:svg="http://www.w3.org/2000/svg"
   xmlns="http://www.w3.org/2000/svg"
   xmlns:sodipodi="http://sodipodi.sourceforge.net/DTD/sodipodi-0.dtd"
   xmlns:inkscape="http://www.inkscape.org/namespaces/inkscape"
   viewBox="0 0 41.852152 45"
   xml:space="preserve"
   version="1.1"
   id="svg2"
   inkscape:version="0.91 r13725"
   sodipodi:docname="logo.svg"
   width="41.852154"
   height="45"><sodipodi:namedview
     pagecolor="#ffffff"
     bordercolor="#666666"
     borderopacity="1"
     objecttolerance="10"
     gridtolerance="10"
     guidetolerance="10"
     inkscape:pageopacity="0"
     inkscape:pageshadow="2"
     inkscape:window-width="1600"
     inkscape:window-height="837"
     id="namedview18"
     showgrid="false"
     inkscape:zoom="20.203308"
     inkscape:cx="6.4995731"
     inkscape:cy="16.531945"
     inkscape:window-x="1358"
     inkscape:window-y="-8"
     inkscape:window-maximized="1"
     inkscape:current-layer="svg2"
     fit-margin-top="0"
     fit-margin-left="0"
     fit-margin-right="0"
     fit-margin-bottom="0" /><metadata
     id="metadata8"><rdf:RDF><cc:Work
         rdf:about=""><dc:format>image/svg+xml</dc:format><dc:type
           rdf:resource="http://purl.org/dc/dcmitype/StillImage" /><dc:title /></cc:Work></rdf:RDF></metadata><defs
     id="defs6"><clipPath
       id="clipPath16"
       clipPathUnits="userSpaceOnUse"><path
         id="path18"
         d="M 0,36 36,36 36,0 0,0 0,36 Z"
         inkscape:connector-curvature="0" /></clipPath><clipPath
       id="clipPath28"
       clipPathUnits="userSpaceOnUse"><path
         id="path30"
         d="m 17.583,26.833 c -2.957,-0.231 -5.666,2.542 -4.666,7.042 l 0,0 c -3.238,-2.386 -3.333,-6.402 -2.334,-9 l 0,0 C 11.625,22.166 10.542,19.916 8,19.667 l 0,0 C 5.161,19.387 3.584,22.709 5.038,28 l 0,0 C 2.519,25.035 1,21.195 1,17 l 0,0 C 1,7.611 8.611,0 18,0 l 0,0 c 9.389,0 17,7.611 17,17 l 0,0 c 0,2.063 -0.367,4.039 -1.04,5.868 l 0,0 C 33.5,17.48 30.627,14.71 27.625,16 l 0,0 c -2.813,1.208 -0.917,5.917 -0.777,8.164 l 0,0 c 0.236,3.809 -0.012,8.169 -6.931,11.795 l 0,0 c 2.875,-5.5 0.333,-8.918 -2.334,-9.126"
         inkscape:connector-curvature="0" /></clipPath></defs><g
     transform="matrix(1.2309457,0,0,-1.2309457,-1.2309467,45)"
     id="g10"
     inkscape:export-xdpi="90"
     inkscape:export-ydpi="90"><g
       id="g12"><g
         clip-path="url(#clipPath16)"
         id="g14"><g
           transform="translate(35,17)"
           id="g20"><path
             id="path22"
             style="fill:#f4900c;fill-opacity:1;fill-rule:nonzero;stroke:none"
             d="M 0,0 C 0,2.063 -0.367,4.039 -1.04,5.868 -1.5,0.48 -4.373,-2.289 -7.375,-1 c -2.813,1.208 -0.917,5.917 -0.777,8.164 0.236,3.809 -0.012,8.169 -6.931,11.794 2.875,-5.5 0.333,-8.916 -2.334,-9.125 -2.957,-0.23 -5.666,2.542 -4.666,7.042 -3.238,-2.386 -3.333,-6.402 -2.334,-9 C -23.375,5.167 -24.458,2.917 -27,2.667 -29.839,2.387 -31.417,5.708 -29.962,11 -32.48,8.035 -34,4.195 -34,0 c 0,-9.389 7.611,-17 17,-17 9.389,0 17,7.611 17,17"
             inkscape:connector-curvature="0" /></g></g></g><g
       id="g24"><g
         clip-path="url(#clipPath28)"
         id="g26"><g
           transform="translate(30,6)"
           id="g32"><path
             id="path34"
             style="fill:#ffcc4d;fill-opacity:1;fill-rule:nonzero;stroke:none"
             d="m 0,0 c 0,2.186 -0.584,4.236 -1.605,6.001 0.147,-3.084 -2.562,-4.293 -4.02,-3.709 -2.105,0.843 -1.541,2.291 -2.083,5.291 -0.542,3 -2.625,5.084 -5.709,6 2.25,-6.333 -1.247,-8.667 -3.08,-9.084 C -18.369,4.073 -20.25,4.5 -20.465,8.506 -22.648,6.332 -24,3.324 -24,0 c 0,-6.627 5.373,-12 12,-12 6.627,0 12,5.373 12,12"
             inkscape:connector-curvature="0" /></g></g></g></g><path
     inkscape:connector-curvature="0"
     d="M 20.632865,0 C 13.729217,0 8.1119388,5.6172838 8.1119388,12.520927 c 0,3.103316 1.4135335,5.942593 2.7830112,8.686395 1.14449,2.301193 2.225358,4.47279 2.225358,6.338721 0,1.384186 1.120076,2.504184 2.504184,2.504184 l 10.016744,0 c 1.38419,0 2.504188,-1.120076 2.504188,-2.504184 0,-1.958822 1.093154,-4.140202 2.252279,-6.446325 1.354843,-2.69982 2.75609,-5.492536 2.75609,-8.578791 C 33.153793,5.6172838 27.536514,0 20.632865,0 Z m 5.008371,27.546043 -3.756278,0 0,-7.512557 c 0,-0.692095 -0.559997,-1.252093 -1.252093,-1.252093 -0.692095,0 -1.252092,0.559998 -1.252092,1.252093 l 0,7.512557 -3.756281,0 c 0,-4.930117 -5.008369,-10.016743 -5.008369,-15.025116 0,-5.5317442 4.485076,-10.0167377 10.016742,-10.0167377 5.531668,0 10.016744,4.4850711 10.016744,10.0167377 0,5.008373 -5.008373,9.938487 -5.008373,15.025116 z M 24.389142,16.277209 c 0,0.692095 -0.559998,1.252091 -1.252093,1.252091 l -5.008368,0 c -0.692095,0 -1.252092,-0.559996 -1.252092,-1.252091 0,-0.692095 0.559997,-1.252093 1.252092,-1.252093 l 5.008368,0 c 0.692095,0 1.252093,0.559998 1.252093,1.252093 z m 0,-3.756282 c 0,0.692096 -0.559998,1.252097 -1.252093,1.252097 l -5.008368,0 c -0.692095,0 -1.252092,-0.560001 -1.252092,-1.252097 0,-0.69209 0.559997,-1.252091 1.252092,-1.252091 l 5.008368,0 c 0.692095,0 1.252093,0.560001 1.252093,1.252091 z m 1.252094,21.285577 c 0.692095,0 1.25209,0.560001 1.25209,1.252098 0,0.692091 -0.559995,1.252092 -1.25209,1.252092 0.692095,0 1.25209,0.559998 1.25209,1.252093 0,0.692095 -0.559995,1.252091 -1.25209,1.252091 l -2.504187,0 c -0.591848,0.78749 -1.518631,1.252093 -2.504184,1.252093 -0.985552,0 -1.912414,-0.464682 -2.504184,-1.252093 l -2.504189,0 c -0.69209,0 -1.252093,-0.559996 -1.252093,-1.252091 0,-0.692095 0.560003,-1.252093 1.252093,-1.252093 -0.69209,0 -1.252093,-0.560001 -1.252093,-1.252092 0,-0.692097 0.560003,-1.252098 1.252093,-1.252098 -0.69209,0 -1.252093,-0.559996 -1.252093,-1.252092 0,-0.692091 0.560003,-1.252092 1.252093,-1.252092 l 10.016744,0 c 0.692095,0 1.25209,0.560001 1.25209,1.252092 0,0.692096 -0.559995,1.252092 -1.25209,1.252092 z"
     id="bulb"
     class="bulb"
     style="fill:#ffffff;fill-opacity:0.66666667;stroke:none;stroke-opacity:0.66666667"
     inkscape:export-xdpi="90"
     inkscape:export-ydpi="90"
     inkscape:label="#path3" /></svg>